<mxfile host="app.diagrams.net" agent="Mozilla/5.0 (Windows NT 10.0; Win64; x64) AppleWebKit/537.36 (KHTML, like Gecko) Chrome/135.0.0.0 Safari/537.36" version="26.2.9">
  <diagram name="Page-1" id="2ppMY8HaYaGod2oETGBw">
    <mxGraphModel grid="1" page="1" gridSize="10" guides="1" tooltips="1" connect="1" arrows="1" fold="1" pageScale="1" pageWidth="850" pageHeight="1100" math="0" shadow="0">
      <root>
        <mxCell id="0" />
        <mxCell id="1" parent="0" />
        <mxCell id="t6_VdybP5JX7vsFyHu6O-8" value="" style="shape=table;startSize=0;container=1;collapsible=0;childLayout=tableLayout;" vertex="1" parent="1">
          <mxGeometry x="80" y="80" width="360" height="40" as="geometry" />
        </mxCell>
        <mxCell id="t6_VdybP5JX7vsFyHu6O-9" value="" style="shape=tableRow;horizontal=0;startSize=0;swimlaneHead=0;swimlaneBody=0;strokeColor=inherit;top=0;left=0;bottom=0;right=0;collapsible=0;dropTarget=0;fillColor=none;points=[[0,0.5],[1,0.5]];portConstraint=eastwest;" vertex="1" parent="t6_VdybP5JX7vsFyHu6O-8">
          <mxGeometry width="360" height="40" as="geometry" />
        </mxCell>
        <mxCell id="t6_VdybP5JX7vsFyHu6O-10" value="&lt;u&gt;airport_id&lt;/u&gt;" style="shape=partialRectangle;html=1;whiteSpace=wrap;connectable=0;strokeColor=inherit;overflow=hidden;fillColor=none;top=0;left=0;bottom=0;right=0;pointerEvents=1;" vertex="1" parent="t6_VdybP5JX7vsFyHu6O-9">
          <mxGeometry width="120" height="40" as="geometry">
            <mxRectangle width="120" height="40" as="alternateBounds" />
          </mxGeometry>
        </mxCell>
        <mxCell id="t6_VdybP5JX7vsFyHu6O-11" value="&lt;u&gt;airport_address&lt;/u&gt;" style="shape=partialRectangle;html=1;whiteSpace=wrap;connectable=0;strokeColor=inherit;overflow=hidden;fillColor=none;top=0;left=0;bottom=0;right=0;pointerEvents=1;" vertex="1" parent="t6_VdybP5JX7vsFyHu6O-9">
          <mxGeometry x="120" width="120" height="40" as="geometry">
            <mxRectangle width="120" height="40" as="alternateBounds" />
          </mxGeometry>
        </mxCell>
        <mxCell id="t6_VdybP5JX7vsFyHu6O-12" value="airport_name" style="shape=partialRectangle;html=1;whiteSpace=wrap;connectable=0;strokeColor=inherit;overflow=hidden;fillColor=none;top=0;left=0;bottom=0;right=0;pointerEvents=1;" vertex="1" parent="t6_VdybP5JX7vsFyHu6O-9">
          <mxGeometry x="240" width="120" height="40" as="geometry">
            <mxRectangle width="120" height="40" as="alternateBounds" />
          </mxGeometry>
        </mxCell>
        <mxCell id="t6_VdybP5JX7vsFyHu6O-13" value="" style="shape=table;startSize=0;container=1;collapsible=0;childLayout=tableLayout;" vertex="1" parent="1">
          <mxGeometry x="80" y="160" width="440" height="40" as="geometry" />
        </mxCell>
        <mxCell id="t6_VdybP5JX7vsFyHu6O-14" value="" style="shape=tableRow;horizontal=0;startSize=0;swimlaneHead=0;swimlaneBody=0;strokeColor=inherit;top=0;left=0;bottom=0;right=0;collapsible=0;dropTarget=0;fillColor=none;points=[[0,0.5],[1,0.5]];portConstraint=eastwest;" vertex="1" parent="t6_VdybP5JX7vsFyHu6O-13">
          <mxGeometry width="440" height="40" as="geometry" />
        </mxCell>
        <mxCell id="t6_VdybP5JX7vsFyHu6O-15" value="&lt;u&gt;airport_id&lt;/u&gt;" style="shape=partialRectangle;html=1;whiteSpace=wrap;connectable=0;strokeColor=inherit;overflow=hidden;fillColor=none;top=0;left=0;bottom=0;right=0;pointerEvents=1;" vertex="1" parent="t6_VdybP5JX7vsFyHu6O-14">
          <mxGeometry width="110" height="40" as="geometry">
            <mxRectangle width="110" height="40" as="alternateBounds" />
          </mxGeometry>
        </mxCell>
        <mxCell id="t6_VdybP5JX7vsFyHu6O-16" value="&lt;u&gt;employee_id&lt;/u&gt;" style="shape=partialRectangle;html=1;whiteSpace=wrap;connectable=0;strokeColor=inherit;overflow=hidden;fillColor=none;top=0;left=0;bottom=0;right=0;pointerEvents=1;" vertex="1" parent="t6_VdybP5JX7vsFyHu6O-14">
          <mxGeometry x="110" width="110" height="40" as="geometry">
            <mxRectangle width="110" height="40" as="alternateBounds" />
          </mxGeometry>
        </mxCell>
        <mxCell id="t6_VdybP5JX7vsFyHu6O-17" value="salary" style="shape=partialRectangle;html=1;whiteSpace=wrap;connectable=0;strokeColor=inherit;overflow=hidden;fillColor=none;top=0;left=0;bottom=0;right=0;pointerEvents=1;" vertex="1" parent="t6_VdybP5JX7vsFyHu6O-14">
          <mxGeometry x="220" width="110" height="40" as="geometry">
            <mxRectangle width="110" height="40" as="alternateBounds" />
          </mxGeometry>
        </mxCell>
        <mxCell id="t6_VdybP5JX7vsFyHu6O-18" value="shift" style="shape=partialRectangle;html=1;whiteSpace=wrap;connectable=0;strokeColor=inherit;overflow=hidden;fillColor=none;top=0;left=0;bottom=0;right=0;pointerEvents=1;" vertex="1" parent="t6_VdybP5JX7vsFyHu6O-14">
          <mxGeometry x="330" width="110" height="40" as="geometry">
            <mxRectangle width="110" height="40" as="alternateBounds" />
          </mxGeometry>
        </mxCell>
        <mxCell id="t6_VdybP5JX7vsFyHu6O-26" value="" style="shape=table;startSize=0;container=1;collapsible=0;childLayout=tableLayout;" vertex="1" parent="1">
          <mxGeometry x="80" y="480" width="360" height="40" as="geometry" />
        </mxCell>
        <mxCell id="t6_VdybP5JX7vsFyHu6O-27" value="" style="shape=tableRow;horizontal=0;startSize=0;swimlaneHead=0;swimlaneBody=0;strokeColor=inherit;top=0;left=0;bottom=0;right=0;collapsible=0;dropTarget=0;fillColor=none;points=[[0,0.5],[1,0.5]];portConstraint=eastwest;" vertex="1" parent="t6_VdybP5JX7vsFyHu6O-26">
          <mxGeometry width="360" height="40" as="geometry" />
        </mxCell>
        <mxCell id="t6_VdybP5JX7vsFyHu6O-28" value="&lt;u&gt;plane_id&lt;/u&gt;" style="shape=partialRectangle;html=1;whiteSpace=wrap;connectable=0;strokeColor=inherit;overflow=hidden;fillColor=none;top=0;left=0;bottom=0;right=0;pointerEvents=1;" vertex="1" parent="t6_VdybP5JX7vsFyHu6O-27">
          <mxGeometry width="90" height="40" as="geometry">
            <mxRectangle width="90" height="40" as="alternateBounds" />
          </mxGeometry>
        </mxCell>
        <mxCell id="t6_VdybP5JX7vsFyHu6O-29" value="plane_name" style="shape=partialRectangle;html=1;whiteSpace=wrap;connectable=0;strokeColor=inherit;overflow=hidden;fillColor=none;top=0;left=0;bottom=0;right=0;pointerEvents=1;" vertex="1" parent="t6_VdybP5JX7vsFyHu6O-27">
          <mxGeometry x="90" width="90" height="40" as="geometry">
            <mxRectangle width="90" height="40" as="alternateBounds" />
          </mxGeometry>
        </mxCell>
        <mxCell id="t6_VdybP5JX7vsFyHu6O-30" value="manufacture" style="shape=partialRectangle;html=1;whiteSpace=wrap;connectable=0;strokeColor=inherit;overflow=hidden;fillColor=none;top=0;left=0;bottom=0;right=0;pointerEvents=1;" vertex="1" parent="t6_VdybP5JX7vsFyHu6O-27">
          <mxGeometry x="180" width="90" height="40" as="geometry">
            <mxRectangle width="90" height="40" as="alternateBounds" />
          </mxGeometry>
        </mxCell>
        <mxCell id="t6_VdybP5JX7vsFyHu6O-31" value="seat" style="shape=partialRectangle;html=1;whiteSpace=wrap;connectable=0;strokeColor=inherit;overflow=hidden;fillColor=none;top=0;left=0;bottom=0;right=0;pointerEvents=1;" vertex="1" parent="t6_VdybP5JX7vsFyHu6O-27">
          <mxGeometry x="270" width="90" height="40" as="geometry">
            <mxRectangle width="90" height="40" as="alternateBounds" />
          </mxGeometry>
        </mxCell>
        <mxCell id="t6_VdybP5JX7vsFyHu6O-39" value="" style="shape=table;startSize=0;container=1;collapsible=0;childLayout=tableLayout;" vertex="1" parent="1">
          <mxGeometry x="80" y="560" width="360" height="40" as="geometry" />
        </mxCell>
        <mxCell id="t6_VdybP5JX7vsFyHu6O-40" value="" style="shape=tableRow;horizontal=0;startSize=0;swimlaneHead=0;swimlaneBody=0;strokeColor=inherit;top=0;left=0;bottom=0;right=0;collapsible=0;dropTarget=0;fillColor=none;points=[[0,0.5],[1,0.5]];portConstraint=eastwest;" vertex="1" parent="t6_VdybP5JX7vsFyHu6O-39">
          <mxGeometry width="360" height="40" as="geometry" />
        </mxCell>
        <mxCell id="t6_VdybP5JX7vsFyHu6O-41" value="&lt;u&gt;route_id&lt;/u&gt;" style="shape=partialRectangle;html=1;whiteSpace=wrap;connectable=0;strokeColor=inherit;overflow=hidden;fillColor=none;top=0;left=0;bottom=0;right=0;pointerEvents=1;" vertex="1" parent="t6_VdybP5JX7vsFyHu6O-40">
          <mxGeometry width="90" height="40" as="geometry">
            <mxRectangle width="90" height="40" as="alternateBounds" />
          </mxGeometry>
        </mxCell>
        <mxCell id="t6_VdybP5JX7vsFyHu6O-42" value="length" style="shape=partialRectangle;html=1;whiteSpace=wrap;connectable=0;strokeColor=inherit;overflow=hidden;fillColor=none;top=0;left=0;bottom=0;right=0;pointerEvents=1;" vertex="1" parent="t6_VdybP5JX7vsFyHu6O-40">
          <mxGeometry x="90" width="90" height="40" as="geometry">
            <mxRectangle width="90" height="40" as="alternateBounds" />
          </mxGeometry>
        </mxCell>
        <mxCell id="t6_VdybP5JX7vsFyHu6O-43" value="depart_location" style="shape=partialRectangle;html=1;whiteSpace=wrap;connectable=0;strokeColor=inherit;overflow=hidden;fillColor=none;top=0;left=0;bottom=0;right=0;pointerEvents=1;" vertex="1" parent="t6_VdybP5JX7vsFyHu6O-40">
          <mxGeometry x="180" width="90" height="40" as="geometry">
            <mxRectangle width="90" height="40" as="alternateBounds" />
          </mxGeometry>
        </mxCell>
        <mxCell id="t6_VdybP5JX7vsFyHu6O-44" value="arrive_location" style="shape=partialRectangle;html=1;whiteSpace=wrap;connectable=0;strokeColor=inherit;overflow=hidden;fillColor=none;top=0;left=0;bottom=0;right=0;pointerEvents=1;" vertex="1" parent="t6_VdybP5JX7vsFyHu6O-40">
          <mxGeometry x="270" width="90" height="40" as="geometry">
            <mxRectangle width="90" height="40" as="alternateBounds" />
          </mxGeometry>
        </mxCell>
        <mxCell id="t6_VdybP5JX7vsFyHu6O-49" value="" style="shape=table;startSize=0;container=1;collapsible=0;childLayout=tableLayout;" vertex="1" parent="1">
          <mxGeometry x="80" y="720" width="550" height="40" as="geometry" />
        </mxCell>
        <mxCell id="t6_VdybP5JX7vsFyHu6O-50" value="" style="shape=tableRow;horizontal=0;startSize=0;swimlaneHead=0;swimlaneBody=0;strokeColor=inherit;top=0;left=0;bottom=0;right=0;collapsible=0;dropTarget=0;fillColor=none;points=[[0,0.5],[1,0.5]];portConstraint=eastwest;" vertex="1" parent="t6_VdybP5JX7vsFyHu6O-49">
          <mxGeometry width="550" height="40" as="geometry" />
        </mxCell>
        <mxCell id="t6_VdybP5JX7vsFyHu6O-51" value="&lt;u&gt;customer_id&lt;/u&gt;" style="shape=partialRectangle;html=1;whiteSpace=wrap;connectable=0;strokeColor=inherit;overflow=hidden;fillColor=none;top=0;left=0;bottom=0;right=0;pointerEvents=1;" vertex="1" parent="t6_VdybP5JX7vsFyHu6O-50">
          <mxGeometry width="110" height="40" as="geometry">
            <mxRectangle width="110" height="40" as="alternateBounds" />
          </mxGeometry>
        </mxCell>
        <mxCell id="t6_VdybP5JX7vsFyHu6O-52" value="customer_name" style="shape=partialRectangle;html=1;whiteSpace=wrap;connectable=0;strokeColor=inherit;overflow=hidden;fillColor=none;top=0;left=0;bottom=0;right=0;pointerEvents=1;" vertex="1" parent="t6_VdybP5JX7vsFyHu6O-50">
          <mxGeometry x="110" width="110" height="40" as="geometry">
            <mxRectangle width="110" height="40" as="alternateBounds" />
          </mxGeometry>
        </mxCell>
        <mxCell id="t6_VdybP5JX7vsFyHu6O-53" value="customer_phone" style="shape=partialRectangle;html=1;whiteSpace=wrap;connectable=0;strokeColor=inherit;overflow=hidden;fillColor=none;top=0;left=0;bottom=0;right=0;pointerEvents=1;" vertex="1" parent="t6_VdybP5JX7vsFyHu6O-50">
          <mxGeometry x="220" width="110" height="40" as="geometry">
            <mxRectangle width="110" height="40" as="alternateBounds" />
          </mxGeometry>
        </mxCell>
        <mxCell id="t6_VdybP5JX7vsFyHu6O-54" value="customer_address" style="shape=partialRectangle;html=1;whiteSpace=wrap;connectable=0;strokeColor=inherit;overflow=hidden;fillColor=none;top=0;left=0;bottom=0;right=0;pointerEvents=1;" vertex="1" parent="t6_VdybP5JX7vsFyHu6O-50">
          <mxGeometry x="330" width="110" height="40" as="geometry">
            <mxRectangle width="110" height="40" as="alternateBounds" />
          </mxGeometry>
        </mxCell>
        <mxCell id="t6_VdybP5JX7vsFyHu6O-55" value="citizen_id" style="shape=partialRectangle;html=1;whiteSpace=wrap;connectable=0;strokeColor=inherit;overflow=hidden;fillColor=none;top=0;left=0;bottom=0;right=0;pointerEvents=1;" vertex="1" parent="t6_VdybP5JX7vsFyHu6O-50">
          <mxGeometry x="440" width="110" height="40" as="geometry">
            <mxRectangle width="110" height="40" as="alternateBounds" />
          </mxGeometry>
        </mxCell>
        <mxCell id="t6_VdybP5JX7vsFyHu6O-65" value="" style="shape=table;startSize=0;container=1;collapsible=0;childLayout=tableLayout;" vertex="1" parent="1">
          <mxGeometry x="80" y="400" width="400" height="40" as="geometry" />
        </mxCell>
        <mxCell id="t6_VdybP5JX7vsFyHu6O-66" value="" style="shape=tableRow;horizontal=0;startSize=0;swimlaneHead=0;swimlaneBody=0;strokeColor=inherit;top=0;left=0;bottom=0;right=0;collapsible=0;dropTarget=0;fillColor=none;points=[[0,0.5],[1,0.5]];portConstraint=eastwest;" vertex="1" parent="t6_VdybP5JX7vsFyHu6O-65">
          <mxGeometry width="400" height="40" as="geometry" />
        </mxCell>
        <mxCell id="t6_VdybP5JX7vsFyHu6O-67" value="&lt;u&gt;fight_id&lt;/u&gt;" style="shape=partialRectangle;html=1;whiteSpace=wrap;connectable=0;strokeColor=inherit;overflow=hidden;fillColor=none;top=0;left=0;bottom=0;right=0;pointerEvents=1;" vertex="1" parent="t6_VdybP5JX7vsFyHu6O-66">
          <mxGeometry width="100" height="40" as="geometry">
            <mxRectangle width="100" height="40" as="alternateBounds" />
          </mxGeometry>
        </mxCell>
        <mxCell id="t6_VdybP5JX7vsFyHu6O-68" value="depart_time" style="shape=partialRectangle;html=1;whiteSpace=wrap;connectable=0;strokeColor=inherit;overflow=hidden;fillColor=none;top=0;left=0;bottom=0;right=0;pointerEvents=1;" vertex="1" parent="t6_VdybP5JX7vsFyHu6O-66">
          <mxGeometry x="100" width="100" height="40" as="geometry">
            <mxRectangle width="100" height="40" as="alternateBounds" />
          </mxGeometry>
        </mxCell>
        <mxCell id="t6_VdybP5JX7vsFyHu6O-69" value="arrive_time" style="shape=partialRectangle;html=1;whiteSpace=wrap;connectable=0;strokeColor=inherit;overflow=hidden;fillColor=none;top=0;left=0;bottom=0;right=0;pointerEvents=1;" vertex="1" parent="t6_VdybP5JX7vsFyHu6O-66">
          <mxGeometry x="200" width="100" height="40" as="geometry">
            <mxRectangle width="100" height="40" as="alternateBounds" />
          </mxGeometry>
        </mxCell>
        <mxCell id="t6_VdybP5JX7vsFyHu6O-70" value="quantity" style="shape=partialRectangle;html=1;whiteSpace=wrap;connectable=0;strokeColor=inherit;overflow=hidden;fillColor=none;top=0;left=0;bottom=0;right=0;pointerEvents=1;" vertex="1" parent="t6_VdybP5JX7vsFyHu6O-66">
          <mxGeometry x="300" width="100" height="40" as="geometry">
            <mxRectangle width="100" height="40" as="alternateBounds" />
          </mxGeometry>
        </mxCell>
        <mxCell id="t6_VdybP5JX7vsFyHu6O-71" value="" style="shape=table;startSize=0;container=1;collapsible=0;childLayout=tableLayout;" vertex="1" parent="1">
          <mxGeometry x="520" y="480" width="280" height="40" as="geometry" />
        </mxCell>
        <mxCell id="t6_VdybP5JX7vsFyHu6O-72" value="" style="shape=tableRow;horizontal=0;startSize=0;swimlaneHead=0;swimlaneBody=0;strokeColor=inherit;top=0;left=0;bottom=0;right=0;collapsible=0;dropTarget=0;fillColor=none;points=[[0,0.5],[1,0.5]];portConstraint=eastwest;" vertex="1" parent="t6_VdybP5JX7vsFyHu6O-71">
          <mxGeometry width="280" height="40" as="geometry" />
        </mxCell>
        <mxCell id="t6_VdybP5JX7vsFyHu6O-73" value="&lt;u&gt;fight_id&lt;/u&gt;" style="shape=partialRectangle;html=1;whiteSpace=wrap;connectable=0;strokeColor=inherit;overflow=hidden;fillColor=none;top=0;left=0;bottom=0;right=0;pointerEvents=1;" vertex="1" parent="t6_VdybP5JX7vsFyHu6O-72">
          <mxGeometry width="94" height="40" as="geometry">
            <mxRectangle width="94" height="40" as="alternateBounds" />
          </mxGeometry>
        </mxCell>
        <mxCell id="t6_VdybP5JX7vsFyHu6O-74" value="&lt;u&gt;plane_id&lt;/u&gt;" style="shape=partialRectangle;html=1;whiteSpace=wrap;connectable=0;strokeColor=inherit;overflow=hidden;fillColor=none;top=0;left=0;bottom=0;right=0;pointerEvents=1;" vertex="1" parent="t6_VdybP5JX7vsFyHu6O-72">
          <mxGeometry x="94" width="92" height="40" as="geometry">
            <mxRectangle width="92" height="40" as="alternateBounds" />
          </mxGeometry>
        </mxCell>
        <mxCell id="t6_VdybP5JX7vsFyHu6O-75" value="frequency" style="shape=partialRectangle;html=1;whiteSpace=wrap;connectable=0;strokeColor=inherit;overflow=hidden;fillColor=none;top=0;left=0;bottom=0;right=0;pointerEvents=1;" vertex="1" parent="t6_VdybP5JX7vsFyHu6O-72">
          <mxGeometry x="186" width="94" height="40" as="geometry">
            <mxRectangle width="94" height="40" as="alternateBounds" />
          </mxGeometry>
        </mxCell>
        <mxCell id="t6_VdybP5JX7vsFyHu6O-76" value="" style="shape=table;startSize=0;container=1;collapsible=0;childLayout=tableLayout;" vertex="1" parent="1">
          <mxGeometry x="520" y="560" width="280" height="40" as="geometry" />
        </mxCell>
        <mxCell id="t6_VdybP5JX7vsFyHu6O-77" value="" style="shape=tableRow;horizontal=0;startSize=0;swimlaneHead=0;swimlaneBody=0;strokeColor=inherit;top=0;left=0;bottom=0;right=0;collapsible=0;dropTarget=0;fillColor=none;points=[[0,0.5],[1,0.5]];portConstraint=eastwest;" vertex="1" parent="t6_VdybP5JX7vsFyHu6O-76">
          <mxGeometry width="280" height="40" as="geometry" />
        </mxCell>
        <mxCell id="t6_VdybP5JX7vsFyHu6O-78" value="&lt;u&gt;fight_id&lt;/u&gt;" style="shape=partialRectangle;html=1;whiteSpace=wrap;connectable=0;strokeColor=inherit;overflow=hidden;fillColor=none;top=0;left=0;bottom=0;right=0;pointerEvents=1;" vertex="1" parent="t6_VdybP5JX7vsFyHu6O-77">
          <mxGeometry width="93" height="40" as="geometry">
            <mxRectangle width="93" height="40" as="alternateBounds" />
          </mxGeometry>
        </mxCell>
        <mxCell id="t6_VdybP5JX7vsFyHu6O-79" value="&lt;u&gt;route_id&lt;/u&gt;" style="shape=partialRectangle;html=1;whiteSpace=wrap;connectable=0;strokeColor=inherit;overflow=hidden;fillColor=none;top=0;left=0;bottom=0;right=0;pointerEvents=1;" vertex="1" parent="t6_VdybP5JX7vsFyHu6O-77">
          <mxGeometry x="93" width="94" height="40" as="geometry">
            <mxRectangle width="94" height="40" as="alternateBounds" />
          </mxGeometry>
        </mxCell>
        <mxCell id="t6_VdybP5JX7vsFyHu6O-80" value="gate" style="shape=partialRectangle;html=1;whiteSpace=wrap;connectable=0;strokeColor=inherit;overflow=hidden;fillColor=none;top=0;left=0;bottom=0;right=0;pointerEvents=1;" vertex="1" parent="t6_VdybP5JX7vsFyHu6O-77">
          <mxGeometry x="187" width="93" height="40" as="geometry">
            <mxRectangle width="93" height="40" as="alternateBounds" />
          </mxGeometry>
        </mxCell>
        <mxCell id="t6_VdybP5JX7vsFyHu6O-81" value="" style="shape=table;startSize=0;container=1;collapsible=0;childLayout=tableLayout;" vertex="1" parent="1">
          <mxGeometry x="80" y="640" width="440" height="40" as="geometry" />
        </mxCell>
        <mxCell id="t6_VdybP5JX7vsFyHu6O-82" value="" style="shape=tableRow;horizontal=0;startSize=0;swimlaneHead=0;swimlaneBody=0;strokeColor=inherit;top=0;left=0;bottom=0;right=0;collapsible=0;dropTarget=0;fillColor=none;points=[[0,0.5],[1,0.5]];portConstraint=eastwest;" vertex="1" parent="t6_VdybP5JX7vsFyHu6O-81">
          <mxGeometry width="440" height="40" as="geometry" />
        </mxCell>
        <mxCell id="t6_VdybP5JX7vsFyHu6O-83" value="&lt;u&gt;ticket_id&lt;/u&gt;" style="shape=partialRectangle;html=1;whiteSpace=wrap;connectable=0;strokeColor=inherit;overflow=hidden;fillColor=none;top=0;left=0;bottom=0;right=0;pointerEvents=1;" vertex="1" parent="t6_VdybP5JX7vsFyHu6O-82">
          <mxGeometry width="110" height="40" as="geometry">
            <mxRectangle width="110" height="40" as="alternateBounds" />
          </mxGeometry>
        </mxCell>
        <mxCell id="t6_VdybP5JX7vsFyHu6O-84" value="&lt;u&gt;customer_id&lt;/u&gt;" style="shape=partialRectangle;html=1;whiteSpace=wrap;connectable=0;strokeColor=inherit;overflow=hidden;fillColor=none;top=0;left=0;bottom=0;right=0;pointerEvents=1;" vertex="1" parent="t6_VdybP5JX7vsFyHu6O-82">
          <mxGeometry x="110" width="110" height="40" as="geometry">
            <mxRectangle width="110" height="40" as="alternateBounds" />
          </mxGeometry>
        </mxCell>
        <mxCell id="t6_VdybP5JX7vsFyHu6O-85" value="time_buy" style="shape=partialRectangle;html=1;whiteSpace=wrap;connectable=0;strokeColor=inherit;overflow=hidden;fillColor=none;top=0;left=0;bottom=0;right=0;pointerEvents=1;" vertex="1" parent="t6_VdybP5JX7vsFyHu6O-82">
          <mxGeometry x="220" width="110" height="40" as="geometry">
            <mxRectangle width="110" height="40" as="alternateBounds" />
          </mxGeometry>
        </mxCell>
        <mxCell id="t6_VdybP5JX7vsFyHu6O-86" value="method" style="shape=partialRectangle;html=1;whiteSpace=wrap;connectable=0;strokeColor=inherit;overflow=hidden;fillColor=none;top=0;left=0;bottom=0;right=0;pointerEvents=1;" vertex="1" parent="t6_VdybP5JX7vsFyHu6O-82">
          <mxGeometry x="330" width="110" height="40" as="geometry">
            <mxRectangle width="110" height="40" as="alternateBounds" />
          </mxGeometry>
        </mxCell>
        <mxCell id="t6_VdybP5JX7vsFyHu6O-19" value="" style="shape=table;startSize=0;container=1;collapsible=0;childLayout=tableLayout;" vertex="1" parent="1">
          <mxGeometry x="80" y="240" width="520" height="40" as="geometry" />
        </mxCell>
        <mxCell id="t6_VdybP5JX7vsFyHu6O-20" value="" style="shape=tableRow;horizontal=0;startSize=0;swimlaneHead=0;swimlaneBody=0;strokeColor=inherit;top=0;left=0;bottom=0;right=0;collapsible=0;dropTarget=0;fillColor=none;points=[[0,0.5],[1,0.5]];portConstraint=eastwest;" vertex="1" parent="t6_VdybP5JX7vsFyHu6O-19">
          <mxGeometry width="520" height="40" as="geometry" />
        </mxCell>
        <mxCell id="t6_VdybP5JX7vsFyHu6O-21" value="&lt;u&gt;employee_id&lt;/u&gt;" style="shape=partialRectangle;html=1;whiteSpace=wrap;connectable=0;strokeColor=inherit;overflow=hidden;fillColor=none;top=0;left=0;bottom=0;right=0;pointerEvents=1;" vertex="1" parent="t6_VdybP5JX7vsFyHu6O-20">
          <mxGeometry width="104" height="40" as="geometry">
            <mxRectangle width="104" height="40" as="alternateBounds" />
          </mxGeometry>
        </mxCell>
        <mxCell id="t6_VdybP5JX7vsFyHu6O-22" value="employee_name" style="shape=partialRectangle;html=1;whiteSpace=wrap;connectable=0;strokeColor=inherit;overflow=hidden;fillColor=none;top=0;left=0;bottom=0;right=0;pointerEvents=1;" vertex="1" parent="t6_VdybP5JX7vsFyHu6O-20">
          <mxGeometry x="104" width="116" height="40" as="geometry">
            <mxRectangle width="116" height="40" as="alternateBounds" />
          </mxGeometry>
        </mxCell>
        <mxCell id="t6_VdybP5JX7vsFyHu6O-23" value="position" style="shape=partialRectangle;html=1;whiteSpace=wrap;connectable=0;strokeColor=inherit;overflow=hidden;fillColor=none;top=0;left=0;bottom=0;right=0;pointerEvents=1;" vertex="1" parent="t6_VdybP5JX7vsFyHu6O-20">
          <mxGeometry x="220" width="92" height="40" as="geometry">
            <mxRectangle width="92" height="40" as="alternateBounds" />
          </mxGeometry>
        </mxCell>
        <mxCell id="t6_VdybP5JX7vsFyHu6O-24" value="username" style="shape=partialRectangle;html=1;whiteSpace=wrap;connectable=0;strokeColor=inherit;overflow=hidden;fillColor=none;top=0;left=0;bottom=0;right=0;pointerEvents=1;" vertex="1" parent="t6_VdybP5JX7vsFyHu6O-20">
          <mxGeometry x="312" width="104" height="40" as="geometry">
            <mxRectangle width="104" height="40" as="alternateBounds" />
          </mxGeometry>
        </mxCell>
        <mxCell id="t6_VdybP5JX7vsFyHu6O-25" value="password" style="shape=partialRectangle;html=1;whiteSpace=wrap;connectable=0;strokeColor=inherit;overflow=hidden;fillColor=none;top=0;left=0;bottom=0;right=0;pointerEvents=1;" vertex="1" parent="t6_VdybP5JX7vsFyHu6O-20">
          <mxGeometry x="416" width="104" height="40" as="geometry">
            <mxRectangle width="104" height="40" as="alternateBounds" />
          </mxGeometry>
        </mxCell>
        <mxCell id="t6_VdybP5JX7vsFyHu6O-92" value="" style="endArrow=classic;html=1;rounded=0;entryX=0.139;entryY=1;entryDx=0;entryDy=0;entryPerimeter=0;" edge="1" parent="1" target="t6_VdybP5JX7vsFyHu6O-9">
          <mxGeometry width="50" height="50" relative="1" as="geometry">
            <mxPoint x="130" y="160" as="sourcePoint" />
            <mxPoint x="180" y="110" as="targetPoint" />
          </mxGeometry>
        </mxCell>
        <mxCell id="t6_VdybP5JX7vsFyHu6O-93" value="" style="endArrow=classic;html=1;rounded=0;" edge="1" parent="1">
          <mxGeometry width="50" height="50" relative="1" as="geometry">
            <mxPoint x="130" y="220" as="sourcePoint" />
            <mxPoint x="130" y="240" as="targetPoint" />
          </mxGeometry>
        </mxCell>
        <mxCell id="t6_VdybP5JX7vsFyHu6O-94" value="" style="endArrow=none;html=1;rounded=0;" edge="1" parent="1">
          <mxGeometry width="50" height="50" relative="1" as="geometry">
            <mxPoint x="130" y="220" as="sourcePoint" />
            <mxPoint x="250" y="220" as="targetPoint" />
          </mxGeometry>
        </mxCell>
        <mxCell id="t6_VdybP5JX7vsFyHu6O-95" value="" style="endArrow=none;html=1;rounded=0;entryX=0.388;entryY=1.039;entryDx=0;entryDy=0;entryPerimeter=0;" edge="1" parent="1" target="t6_VdybP5JX7vsFyHu6O-14">
          <mxGeometry width="50" height="50" relative="1" as="geometry">
            <mxPoint x="250" y="220" as="sourcePoint" />
            <mxPoint x="300" y="170" as="targetPoint" />
          </mxGeometry>
        </mxCell>
        <mxCell id="t6_VdybP5JX7vsFyHu6O-96" value="" style="endArrow=none;html=1;rounded=0;" edge="1" parent="1">
          <mxGeometry width="50" height="50" relative="1" as="geometry">
            <mxPoint x="220" y="360" as="sourcePoint" />
            <mxPoint x="220" y="380" as="targetPoint" />
          </mxGeometry>
        </mxCell>
        <mxCell id="t6_VdybP5JX7vsFyHu6O-97" value="" style="endArrow=none;html=1;rounded=0;" edge="1" parent="1" target="t6_VdybP5JX7vsFyHu6O-56">
          <mxGeometry width="50" height="50" relative="1" as="geometry">
            <mxPoint x="380" y="350" as="sourcePoint" />
            <mxPoint x="430" y="300" as="targetPoint" />
          </mxGeometry>
        </mxCell>
        <mxCell id="t6_VdybP5JX7vsFyHu6O-56" value="" style="shape=table;startSize=0;container=1;collapsible=0;childLayout=tableLayout;" vertex="1" parent="1">
          <mxGeometry x="80" y="320" width="690" height="40" as="geometry" />
        </mxCell>
        <mxCell id="t6_VdybP5JX7vsFyHu6O-57" value="" style="shape=tableRow;horizontal=0;startSize=0;swimlaneHead=0;swimlaneBody=0;strokeColor=inherit;top=0;left=0;bottom=0;right=0;collapsible=0;dropTarget=0;fillColor=none;points=[[0,0.5],[1,0.5]];portConstraint=eastwest;" vertex="1" parent="t6_VdybP5JX7vsFyHu6O-56">
          <mxGeometry width="690" height="40" as="geometry" />
        </mxCell>
        <mxCell id="t6_VdybP5JX7vsFyHu6O-58" value="&lt;u&gt;ticket_id&lt;/u&gt;" style="shape=partialRectangle;html=1;whiteSpace=wrap;connectable=0;strokeColor=inherit;overflow=hidden;fillColor=none;top=0;left=0;bottom=0;right=0;pointerEvents=1;" vertex="1" parent="t6_VdybP5JX7vsFyHu6O-57">
          <mxGeometry width="98" height="40" as="geometry">
            <mxRectangle width="98" height="40" as="alternateBounds" />
          </mxGeometry>
        </mxCell>
        <mxCell id="t6_VdybP5JX7vsFyHu6O-59" value="&lt;u&gt;flight_id&lt;/u&gt;" style="shape=partialRectangle;html=1;whiteSpace=wrap;connectable=0;strokeColor=inherit;overflow=hidden;fillColor=none;top=0;left=0;bottom=0;right=0;pointerEvents=1;" vertex="1" parent="t6_VdybP5JX7vsFyHu6O-57">
          <mxGeometry x="98" width="92" height="40" as="geometry">
            <mxRectangle width="92" height="40" as="alternateBounds" />
          </mxGeometry>
        </mxCell>
        <mxCell id="t6_VdybP5JX7vsFyHu6O-60" value="&lt;u&gt;airport_id&lt;/u&gt;" style="shape=partialRectangle;html=1;whiteSpace=wrap;connectable=0;strokeColor=inherit;overflow=hidden;fillColor=none;top=0;left=0;bottom=0;right=0;pointerEvents=1;" vertex="1" parent="t6_VdybP5JX7vsFyHu6O-57">
          <mxGeometry x="190" width="105" height="40" as="geometry">
            <mxRectangle width="105" height="40" as="alternateBounds" />
          </mxGeometry>
        </mxCell>
        <mxCell id="t6_VdybP5JX7vsFyHu6O-61" value="&lt;u&gt;employee_id&lt;/u&gt;" style="shape=partialRectangle;html=1;whiteSpace=wrap;connectable=0;strokeColor=inherit;overflow=hidden;fillColor=none;top=0;left=0;bottom=0;right=0;pointerEvents=1;" vertex="1" parent="t6_VdybP5JX7vsFyHu6O-57">
          <mxGeometry x="295" width="100" height="40" as="geometry">
            <mxRectangle width="100" height="40" as="alternateBounds" />
          </mxGeometry>
        </mxCell>
        <mxCell id="t6_VdybP5JX7vsFyHu6O-62" value="ticket_type" style="shape=partialRectangle;html=1;whiteSpace=wrap;connectable=0;strokeColor=inherit;overflow=hidden;fillColor=none;top=0;left=0;bottom=0;right=0;pointerEvents=1;" vertex="1" parent="t6_VdybP5JX7vsFyHu6O-57">
          <mxGeometry x="395" width="98" height="40" as="geometry">
            <mxRectangle width="98" height="40" as="alternateBounds" />
          </mxGeometry>
        </mxCell>
        <mxCell id="t6_VdybP5JX7vsFyHu6O-63" value="rest_quantity" style="shape=partialRectangle;html=1;whiteSpace=wrap;connectable=0;strokeColor=inherit;overflow=hidden;fillColor=none;top=0;left=0;bottom=0;right=0;pointerEvents=1;" vertex="1" parent="t6_VdybP5JX7vsFyHu6O-57">
          <mxGeometry x="493" width="99" height="40" as="geometry">
            <mxRectangle width="99" height="40" as="alternateBounds" />
          </mxGeometry>
        </mxCell>
        <mxCell id="t6_VdybP5JX7vsFyHu6O-64" value="ticket_price" style="shape=partialRectangle;html=1;whiteSpace=wrap;connectable=0;strokeColor=inherit;overflow=hidden;fillColor=none;top=0;left=0;bottom=0;right=0;pointerEvents=1;" vertex="1" parent="t6_VdybP5JX7vsFyHu6O-57">
          <mxGeometry x="592" width="98" height="40" as="geometry">
            <mxRectangle width="98" height="40" as="alternateBounds" />
          </mxGeometry>
        </mxCell>
        <mxCell id="t6_VdybP5JX7vsFyHu6O-98" value="" style="endArrow=none;html=1;rounded=0;" edge="1" parent="1">
          <mxGeometry width="50" height="50" relative="1" as="geometry">
            <mxPoint x="140" y="380" as="sourcePoint" />
            <mxPoint x="220" y="380" as="targetPoint" />
          </mxGeometry>
        </mxCell>
        <mxCell id="t6_VdybP5JX7vsFyHu6O-99" value="" style="endArrow=classic;html=1;rounded=0;entryX=0.15;entryY=-0.049;entryDx=0;entryDy=0;entryPerimeter=0;" edge="1" parent="1" target="t6_VdybP5JX7vsFyHu6O-66">
          <mxGeometry width="50" height="50" relative="1" as="geometry">
            <mxPoint x="140" y="380" as="sourcePoint" />
            <mxPoint x="190" y="330" as="targetPoint" />
          </mxGeometry>
        </mxCell>
        <mxCell id="t6_VdybP5JX7vsFyHu6O-100" value="" style="endArrow=classic;html=1;rounded=0;" edge="1" parent="1">
          <mxGeometry width="50" height="50" relative="1" as="geometry">
            <mxPoint x="130" y="300" as="sourcePoint" />
            <mxPoint x="130" y="280" as="targetPoint" />
          </mxGeometry>
        </mxCell>
        <mxCell id="t6_VdybP5JX7vsFyHu6O-101" value="" style="endArrow=none;html=1;rounded=0;" edge="1" parent="1">
          <mxGeometry width="50" height="50" relative="1" as="geometry">
            <mxPoint x="130" y="300" as="sourcePoint" />
            <mxPoint x="430" y="300" as="targetPoint" />
          </mxGeometry>
        </mxCell>
        <mxCell id="t6_VdybP5JX7vsFyHu6O-102" value="" style="endArrow=none;html=1;rounded=0;" edge="1" parent="1">
          <mxGeometry width="50" height="50" relative="1" as="geometry">
            <mxPoint x="430" y="320" as="sourcePoint" />
            <mxPoint x="430" y="300" as="targetPoint" />
          </mxGeometry>
        </mxCell>
        <mxCell id="t6_VdybP5JX7vsFyHu6O-103" value="" style="endArrow=none;html=1;rounded=0;" edge="1" parent="1">
          <mxGeometry width="50" height="50" relative="1" as="geometry">
            <mxPoint x="560" y="480" as="sourcePoint" />
            <mxPoint x="560" y="460" as="targetPoint" />
          </mxGeometry>
        </mxCell>
        <mxCell id="t6_VdybP5JX7vsFyHu6O-104" value="" style="endArrow=none;html=1;rounded=0;" edge="1" parent="1">
          <mxGeometry width="50" height="50" relative="1" as="geometry">
            <mxPoint x="120" y="460" as="sourcePoint" />
            <mxPoint x="560" y="460" as="targetPoint" />
          </mxGeometry>
        </mxCell>
        <mxCell id="t6_VdybP5JX7vsFyHu6O-106" value="" style="endArrow=none;html=1;rounded=0;" edge="1" parent="1">
          <mxGeometry width="50" height="50" relative="1" as="geometry">
            <mxPoint x="670" y="540" as="sourcePoint" />
            <mxPoint x="670" y="520" as="targetPoint" />
          </mxGeometry>
        </mxCell>
        <mxCell id="t6_VdybP5JX7vsFyHu6O-107" value="" style="endArrow=none;html=1;rounded=0;" edge="1" parent="1">
          <mxGeometry width="50" height="50" relative="1" as="geometry">
            <mxPoint x="130" y="540" as="sourcePoint" />
            <mxPoint x="670" y="540" as="targetPoint" />
          </mxGeometry>
        </mxCell>
        <mxCell id="t6_VdybP5JX7vsFyHu6O-108" value="" style="endArrow=classic;html=1;rounded=0;entryX=0.14;entryY=1.023;entryDx=0;entryDy=0;entryPerimeter=0;" edge="1" parent="1" target="t6_VdybP5JX7vsFyHu6O-27">
          <mxGeometry width="50" height="50" relative="1" as="geometry">
            <mxPoint x="130" y="540" as="sourcePoint" />
            <mxPoint x="180" y="490" as="targetPoint" />
          </mxGeometry>
        </mxCell>
        <mxCell id="t6_VdybP5JX7vsFyHu6O-109" value="" style="endArrow=none;html=1;rounded=0;" edge="1" parent="1">
          <mxGeometry width="50" height="50" relative="1" as="geometry">
            <mxPoint x="490" y="570" as="sourcePoint" />
            <mxPoint x="520" y="570" as="targetPoint" />
          </mxGeometry>
        </mxCell>
        <mxCell id="t6_VdybP5JX7vsFyHu6O-110" value="" style="endArrow=none;html=1;rounded=0;" edge="1" parent="1">
          <mxGeometry width="50" height="50" relative="1" as="geometry">
            <mxPoint x="490" y="570" as="sourcePoint" />
            <mxPoint x="490" y="450" as="targetPoint" />
          </mxGeometry>
        </mxCell>
        <mxCell id="t6_VdybP5JX7vsFyHu6O-111" value="" style="endArrow=none;html=1;rounded=0;" edge="1" parent="1">
          <mxGeometry width="50" height="50" relative="1" as="geometry">
            <mxPoint x="150" y="450" as="sourcePoint" />
            <mxPoint x="490" y="450" as="targetPoint" />
          </mxGeometry>
        </mxCell>
        <mxCell id="t6_VdybP5JX7vsFyHu6O-112" value="" style="endArrow=classic;html=1;rounded=0;" edge="1" parent="1">
          <mxGeometry width="50" height="50" relative="1" as="geometry">
            <mxPoint x="120" y="460" as="sourcePoint" />
            <mxPoint x="120" y="440" as="targetPoint" />
          </mxGeometry>
        </mxCell>
        <mxCell id="t6_VdybP5JX7vsFyHu6O-113" value="" style="endArrow=classic;html=1;rounded=0;entryX=0.171;entryY=0.959;entryDx=0;entryDy=0;entryPerimeter=0;" edge="1" parent="1" target="t6_VdybP5JX7vsFyHu6O-66">
          <mxGeometry width="50" height="50" relative="1" as="geometry">
            <mxPoint x="150" y="450" as="sourcePoint" />
            <mxPoint x="200" y="400" as="targetPoint" />
          </mxGeometry>
        </mxCell>
        <mxCell id="t6_VdybP5JX7vsFyHu6O-114" value="" style="endArrow=none;html=1;rounded=0;" edge="1" parent="1">
          <mxGeometry width="50" height="50" relative="1" as="geometry">
            <mxPoint x="660" y="620" as="sourcePoint" />
            <mxPoint x="660" y="600" as="targetPoint" />
          </mxGeometry>
        </mxCell>
        <mxCell id="t6_VdybP5JX7vsFyHu6O-115" value="" style="endArrow=none;html=1;rounded=0;" edge="1" parent="1">
          <mxGeometry width="50" height="50" relative="1" as="geometry">
            <mxPoint x="130" y="620" as="sourcePoint" />
            <mxPoint x="660" y="620" as="targetPoint" />
          </mxGeometry>
        </mxCell>
        <mxCell id="t6_VdybP5JX7vsFyHu6O-116" value="" style="endArrow=classic;html=1;rounded=0;entryX=0.142;entryY=0.991;entryDx=0;entryDy=0;entryPerimeter=0;" edge="1" parent="1" target="t6_VdybP5JX7vsFyHu6O-40">
          <mxGeometry width="50" height="50" relative="1" as="geometry">
            <mxPoint x="130" y="620" as="sourcePoint" />
            <mxPoint x="180" y="570" as="targetPoint" />
          </mxGeometry>
        </mxCell>
        <mxCell id="t6_VdybP5JX7vsFyHu6O-117" value="" style="endArrow=classic;html=1;rounded=0;entryX=0.089;entryY=-0.001;entryDx=0;entryDy=0;entryPerimeter=0;" edge="1" parent="1" target="t6_VdybP5JX7vsFyHu6O-50">
          <mxGeometry width="50" height="50" relative="1" as="geometry">
            <mxPoint x="130" y="700" as="sourcePoint" />
            <mxPoint x="180" y="650" as="targetPoint" />
          </mxGeometry>
        </mxCell>
        <mxCell id="t6_VdybP5JX7vsFyHu6O-118" value="" style="endArrow=none;html=1;rounded=0;" edge="1" parent="1">
          <mxGeometry width="50" height="50" relative="1" as="geometry">
            <mxPoint x="130" y="700" as="sourcePoint" />
            <mxPoint x="250" y="700" as="targetPoint" />
          </mxGeometry>
        </mxCell>
        <mxCell id="t6_VdybP5JX7vsFyHu6O-119" value="" style="endArrow=none;html=1;rounded=0;entryX=0.388;entryY=1.023;entryDx=0;entryDy=0;entryPerimeter=0;" edge="1" parent="1" target="t6_VdybP5JX7vsFyHu6O-82">
          <mxGeometry width="50" height="50" relative="1" as="geometry">
            <mxPoint x="250" y="700" as="sourcePoint" />
            <mxPoint x="300" y="650" as="targetPoint" />
            <Array as="points">
              <mxPoint x="250" y="681" />
            </Array>
          </mxGeometry>
        </mxCell>
        <mxCell id="t6_VdybP5JX7vsFyHu6O-120" value="" style="endArrow=none;html=1;rounded=0;" edge="1" parent="1">
          <mxGeometry width="50" height="50" relative="1" as="geometry">
            <mxPoint x="320" y="370" as="sourcePoint" />
            <mxPoint x="320" y="360" as="targetPoint" />
          </mxGeometry>
        </mxCell>
        <mxCell id="t6_VdybP5JX7vsFyHu6O-121" value="" style="endArrow=none;html=1;rounded=0;" edge="1" parent="1">
          <mxGeometry width="50" height="50" relative="1" as="geometry">
            <mxPoint x="60" y="370" as="sourcePoint" />
            <mxPoint x="320" y="370" as="targetPoint" />
          </mxGeometry>
        </mxCell>
        <mxCell id="t6_VdybP5JX7vsFyHu6O-122" value="" style="endArrow=none;html=1;rounded=0;" edge="1" parent="1">
          <mxGeometry width="50" height="50" relative="1" as="geometry">
            <mxPoint x="60" y="370" as="sourcePoint" />
            <mxPoint x="60" y="100" as="targetPoint" />
          </mxGeometry>
        </mxCell>
        <mxCell id="t6_VdybP5JX7vsFyHu6O-123" value="" style="endArrow=classic;html=1;rounded=0;entryX=0;entryY=0.5;entryDx=0;entryDy=0;" edge="1" parent="1" target="t6_VdybP5JX7vsFyHu6O-9">
          <mxGeometry width="50" height="50" relative="1" as="geometry">
            <mxPoint x="60" y="100" as="sourcePoint" />
            <mxPoint x="110" y="50" as="targetPoint" />
          </mxGeometry>
        </mxCell>
        <mxCell id="t6_VdybP5JX7vsFyHu6O-124" value="" style="endArrow=none;html=1;rounded=0;" edge="1" parent="1">
          <mxGeometry width="50" height="50" relative="1" as="geometry">
            <mxPoint x="50" y="660" as="sourcePoint" />
            <mxPoint x="80" y="660" as="targetPoint" />
          </mxGeometry>
        </mxCell>
        <mxCell id="t6_VdybP5JX7vsFyHu6O-125" value="" style="endArrow=none;html=1;rounded=0;" edge="1" parent="1">
          <mxGeometry width="50" height="50" relative="1" as="geometry">
            <mxPoint x="50" y="660" as="sourcePoint" />
            <mxPoint x="50" y="340" as="targetPoint" />
          </mxGeometry>
        </mxCell>
        <mxCell id="t6_VdybP5JX7vsFyHu6O-126" value="" style="endArrow=classic;html=1;rounded=0;entryX=0;entryY=0.5;entryDx=0;entryDy=0;" edge="1" parent="1" target="t6_VdybP5JX7vsFyHu6O-57">
          <mxGeometry width="50" height="50" relative="1" as="geometry">
            <mxPoint x="50" y="340" as="sourcePoint" />
            <mxPoint x="100" y="290" as="targetPoint" />
          </mxGeometry>
        </mxCell>
      </root>
    </mxGraphModel>
  </diagram>
</mxfile>
